# Made in Blockbench 4.12.4
mtllib adv_in_1.mtl

o center
v 0.25 0.5 0.4375
v 0.25 0.5 -0.5
v 0.25 0 0.4375
v 0.25 0 -0.5
v -0.25 0.5 -0.5
v -0.25 0.5 0.4375
v -0.25 0 -0.5
v -0.25 0 0.4375
vt 0 1
vt 0.5 1
vt 0.5 0.5
vt 0 0.5
vt 0 1
vt 0.9375 1
vt 0.9375 0.5
vt 0 0.5
vt 0 1
vt 0.5 1
vt 0.5 0.5
vt 0 0.5
vt 0 1
vt 0.9375 1
vt 0.9375 0.5
vt 0 0.5
vt 0 1
vt 0.5 1
vt 0.5 0.0625
vt 0 0.0625
vt 0 1
vt 0.5 1
vt 0.5 0.0625
vt 0 0.0625
vn 0 0 -1
vn 1 0 0
vn 0 0 1
vn -1 0 0
vn 0 1 0
vn 0 -1 0
usemtl m_1b2da3ed-d19f-30e9-0121-8777f30a06df
f 7/3/1 5/2/1 2/1/1
f 4/4/1 7/3/1 2/1/1
f 4/7/2 2/6/2 1/5/2
f 3/8/2 4/7/2 1/5/2
f 3/11/3 1/10/3 6/9/3
f 8/12/3 3/11/3 6/9/3
f 8/15/4 6/14/4 5/13/4
f 7/16/4 8/15/4 5/13/4
f 1/19/5 2/18/5 5/17/5
f 6/20/5 1/19/5 5/17/5
f 4/23/6 3/22/6 8/21/6
f 7/24/6 4/23/6 8/21/6
o lb
v 0.25 0.5 0.4375
v 0.25 0.5 -0.5
v 0.25 0.125 0.4375
v 0.25 0.125 -0.5
v -0.125 0.5 0.4375
v -0.125 0.5 -0.5
v -0.125 0.125 0.4375
v -0.125 0.125 -0.5
v 0.25 0.125 0.5
v 0.25 0.125 -0.5
v 0.25 0 0.5
v 0.25 0 -0.5
v -0.25 0.125 0.5
v -0.25 0.125 -0.5
v -0.25 0 0.5
v -0.25 0 -0.5
v -0.125 0.5 0.5
v -0.125 0.5 -0.5
v -0.125 0.125 0.5
v -0.125 0.125 -0.5
v -0.25 0.5 0.5
v -0.25 0.5 -0.5
v -0.25 0.125 0.5
v -0.25 0.125 -0.5
vt 0.9375 0.625
vt 0.9375 1
vt 0 1
vt 0 0.625
vt 0.9375 0.625
vt 0.9375 1
vt 0 1
vt 0 0.625
vt 0.375 0.0625
vt 0.375 1
vt 0 1
vt 0 0.0625
vt 0.375 0.0625
vt 0.375 1
vt 0 1
vt 0 0.0625
vt 0.375 0.625
vt 0.375 1
vt 0 1
vt 0 0.625
vt 0.375 0.625
vt 0.375 1
vt 0 1
vt 0 0.625
vt 1 0.875
vt 1 1
vt 0 1
vt 0 0.875
vt 1 0.875
vt 1 1
vt 0 1
vt 0 0.875
vt 0.5 0
vt 0.5 1
vt 0 1
vt 0 0
vt 0.5 0
vt 0.5 1
vt 0 1
vt 0 0
vt 0.5 0.875
vt 0.5 1
vt 0 1
vt 0 0.875
vt 0.5 0.875
vt 0.5 1
vt 0 1
vt 0 0.875
vt 1 0.625
vt 1 1
vt 0 1
vt 0 0.625
vt 1 0.625
vt 1 1
vt 0 1
vt 0 0.625
vt 0.125 0
vt 0.125 1
vt 0 1
vt 0 0
vt 0.125 0
vt 0.125 1
vt 0 1
vt 0 0
vt 0.125 0.625
vt 0.125 1
vt 0 1
vt 0 0.625
vt 0.125 0.625
vt 0.125 1
vt 0 1
vt 0 0.625
vn 1 0 0
vn -1 0 0
vn 0 1 0
vn 0 -1 0
vn 0 0 1
vn 0 0 -1
vn 1 0 0
vn -1 0 0
vn 0 1 0
vn 0 -1 0
vn 0 0 1
vn 0 0 -1
vn 1 0 0
vn -1 0 0
vn 0 1 0
vn 0 -1 0
vn 0 0 1
vn 0 0 -1
usemtl m_369e5a79-23e4-7a89-4fb5-2d2b9a0080f9
f 12/25/7 10/26/7 9/27/7
f 12/25/7 9/27/7 11/28/7
f 15/29/8 13/30/8 14/31/8
f 15/29/8 14/31/8 16/32/8
f 9/33/9 10/34/9 14/35/9
f 9/33/9 14/35/9 13/36/9
f 12/37/10 11/38/10 15/39/10
f 12/37/10 15/39/10 16/40/10
f 11/41/11 9/42/11 13/43/11
f 11/41/11 13/43/11 15/44/11
f 16/45/12 14/46/12 10/47/12
f 16/45/12 10/47/12 12/48/12
f 20/49/13 18/50/13 17/51/13
f 20/49/13 17/51/13 19/52/13
f 23/53/14 21/54/14 22/55/14
f 23/53/14 22/55/14 24/56/14
usemtl m_165e9098-33e4-2c3b-d315-b009f1bc964a
f 17/57/15 18/58/15 22/59/15
f 17/57/15 22/59/15 21/60/15
f 20/61/16 19/62/16 23/63/16
f 20/61/16 23/63/16 24/64/16
f 19/65/17 17/66/17 21/67/17
f 19/65/17 21/67/17 23/68/17
usemtl m_369e5a79-23e4-7a89-4fb5-2d2b9a0080f9
f 24/69/18 22/70/18 18/71/18
f 24/69/18 18/71/18 20/72/18
usemtl m_165e9098-33e4-2c3b-d315-b009f1bc964a
f 28/73/19 26/74/19 25/75/19
f 28/73/19 25/75/19 27/76/19
usemtl m_369e5a79-23e4-7a89-4fb5-2d2b9a0080f9
f 31/77/20 29/78/20 30/79/20
f 31/77/20 30/79/20 32/80/20
f 25/81/21 26/82/21 30/83/21
f 25/81/21 30/83/21 29/84/21
usemtl m_165e9098-33e4-2c3b-d315-b009f1bc964a
f 28/85/22 27/86/22 31/87/22
f 28/85/22 31/87/22 32/88/22
f 27/89/23 25/90/23 29/91/23
f 27/89/23 29/91/23 31/92/23
usemtl m_369e5a79-23e4-7a89-4fb5-2d2b9a0080f9
f 32/93/24 30/94/24 26/95/24
f 32/93/24 26/95/24 28/96/24
o b
v 0.25 0.125 0.5
v 0.25 0.125 -0.5
v 0.25 0 0.5
v 0.25 0 -0.5
v -0.25 0.125 0.5
v -0.25 0.125 -0.5
v -0.25 0 0.5
v -0.25 0 -0.5
v 0.25 0.5 0.4375
v 0.25 0.5 -0.5
v 0.25 0.125 0.4375
v 0.25 0.125 -0.5
v -0.25 0.5 0.4375
v -0.25 0.5 -0.5
v -0.25 0.125 0.4375
v -0.25 0.125 -0.5
vt 1 0.875
vt 1 1
vt 0 1
vt 0 0.875
vt 1 0.875
vt 1 1
vt 0 1
vt 0 0.875
vt 0.5 0
vt 0.5 1
vt 0 1
vt 0 0
vt 0.5 0
vt 0.5 1
vt 0 1
vt 0 0
vt 0.5 0.875
vt 0.5 1
vt 0 1
vt 0 0.875
vt 0.5 0.875
vt 0.5 1
vt 0 1
vt 0 0.875
vt 0.9375 0.625
vt 0.9375 1
vt 0 1
vt 0 0.625
vt 0.9375 0.625
vt 0.9375 1
vt 0 1
vt 0 0.625
vt 0.5 0.0625
vt 0.5 1
vt 0 1
vt 0 0.0625
vt 0.5 0.0625
vt 0.5 1
vt 0 1
vt 0 0.0625
vt 0.5 0.625
vt 0.5 1
vt 0 1
vt 0 0.625
vt 0.5 0.625
vt 0.5 1
vt 0 1
vt 0 0.625
vn 1 0 0
vn -1 0 0
vn 0 1 0
vn 0 -1 0
vn 0 0 1
vn 0 0 -1
vn 1 0 0
vn -1 0 0
vn 0 1 0
vn 0 -1 0
vn 0 0 1
vn 0 0 -1
usemtl m_369e5a79-23e4-7a89-4fb5-2d2b9a0080f9
f 36/97/25 34/98/25 33/99/25
f 36/97/25 33/99/25 35/100/25
f 39/101/26 37/102/26 38/103/26
f 39/101/26 38/103/26 40/104/26
usemtl m_165e9098-33e4-2c3b-d315-b009f1bc964a
f 33/105/27 34/106/27 38/107/27
f 33/105/27 38/107/27 37/108/27
f 36/109/28 35/110/28 39/111/28
f 36/109/28 39/111/28 40/112/28
f 35/113/29 33/114/29 37/115/29
f 35/113/29 37/115/29 39/116/29
usemtl m_369e5a79-23e4-7a89-4fb5-2d2b9a0080f9
f 40/117/30 38/118/30 34/119/30
f 40/117/30 34/119/30 36/120/30
f 44/121/31 42/122/31 41/123/31
f 44/121/31 41/123/31 43/124/31
f 47/125/32 45/126/32 46/127/32
f 47/125/32 46/127/32 48/128/32
f 41/129/33 42/130/33 46/131/33
f 41/129/33 46/131/33 45/132/33
f 44/133/34 43/134/34 47/135/34
f 44/133/34 47/135/34 48/136/34
f 43/137/35 41/138/35 45/139/35
f 43/137/35 45/139/35 47/140/35
f 48/141/36 46/142/36 42/143/36
f 48/141/36 42/143/36 44/144/36
o rb
v 0.25 0.5 0.5
v 0.25 0.5 -0.5
v 0.25 0.125 0.5
v 0.25 0.125 -0.5
v 0.125 0.5 0.5
v 0.125 0.5 -0.5
v 0.125 0.125 0.5
v 0.125 0.125 -0.5
v 0.25 0.125 0.5
v 0.25 0.125 -0.5
v 0.25 0 0.5
v 0.25 0 -0.5
v -0.25 0.125 0.5
v -0.25 0.125 -0.5
v -0.25 0 0.5
v -0.25 0 -0.5
v 0.125 0.5 0.4375
v 0.125 0.5 -0.5
v 0.125 0.125 0.4375
v 0.125 0.125 -0.5
v -0.25 0.5 0.4375
v -0.25 0.5 -0.5
v -0.25 0.125 0.4375
v -0.25 0.125 -0.5
vt 1 0.625
vt 1 1
vt 0 1
vt 0 0.625
vt 1 0.625
vt 1 1
vt 0 1
vt 0 0.625
vt 0.125 0
vt 0.125 1
vt 0 1
vt 0 0
vt 0.125 0
vt 0.125 1
vt 0 1
vt 0 0
vt 0.125 0.625
vt 0.125 1
vt 0 1
vt 0 0.625
vt 0.125 0.625
vt 0.125 1
vt 0 1
vt 0 0.625
vt 1 0.875
vt 1 1
vt 0 1
vt 0 0.875
vt 1 0.875
vt 1 1
vt 0 1
vt 0 0.875
vt 0.5 0
vt 0.5 1
vt 0 1
vt 0 0
vt 0.5 0
vt 0.5 1
vt 0 1
vt 0 0
vt 0.5 0.875
vt 0.5 1
vt 0 1
vt 0 0.875
vt 0.5 0.875
vt 0.5 1
vt 0 1
vt 0 0.875
vt 0.9375 0.625
vt 0.9375 1
vt 0 1
vt 0 0.625
vt 0.9375 0.625
vt 0.9375 1
vt 0 1
vt 0 0.625
vt 0.375 0.0625
vt 0.375 1
vt 0 1
vt 0 0.0625
vt 0.375 0.0625
vt 0.375 1
vt 0 1
vt 0 0.0625
vt 0.375 0.625
vt 0.375 1
vt 0 1
vt 0 0.625
vt 0.375 0.625
vt 0.375 1
vt 0 1
vt 0 0.625
vn 1 0 0
vn -1 0 0
vn 0 1 0
vn 0 -1 0
vn 0 0 1
vn 0 0 -1
vn 1 0 0
vn -1 0 0
vn 0 1 0
vn 0 -1 0
vn 0 0 1
vn 0 0 -1
vn 1 0 0
vn -1 0 0
vn 0 1 0
vn 0 -1 0
vn 0 0 1
vn 0 0 -1
usemtl m_369e5a79-23e4-7a89-4fb5-2d2b9a0080f9
f 52/145/37 50/146/37 49/147/37
f 52/145/37 49/147/37 51/148/37
usemtl m_165e9098-33e4-2c3b-d315-b009f1bc964a
f 55/149/38 53/150/38 54/151/38
f 55/149/38 54/151/38 56/152/38
usemtl m_369e5a79-23e4-7a89-4fb5-2d2b9a0080f9
f 49/153/39 50/154/39 54/155/39
f 49/153/39 54/155/39 53/156/39
usemtl m_165e9098-33e4-2c3b-d315-b009f1bc964a
f 52/157/40 51/158/40 55/159/40
f 52/157/40 55/159/40 56/160/40
f 51/161/41 49/162/41 53/163/41
f 51/161/41 53/163/41 55/164/41
usemtl m_369e5a79-23e4-7a89-4fb5-2d2b9a0080f9
f 56/165/42 54/166/42 50/167/42
f 56/165/42 50/167/42 52/168/42
f 60/169/43 58/170/43 57/171/43
f 60/169/43 57/171/43 59/172/43
f 63/173/44 61/174/44 62/175/44
f 63/173/44 62/175/44 64/176/44
usemtl m_165e9098-33e4-2c3b-d315-b009f1bc964a
f 57/177/45 58/178/45 62/179/45
f 57/177/45 62/179/45 61/180/45
f 60/181/46 59/182/46 63/183/46
f 60/181/46 63/183/46 64/184/46
f 59/185/47 57/186/47 61/187/47
f 59/185/47 61/187/47 63/188/47
usemtl m_369e5a79-23e4-7a89-4fb5-2d2b9a0080f9
f 64/189/48 62/190/48 58/191/48
f 64/189/48 58/191/48 60/192/48
f 68/193/49 66/194/49 65/195/49
f 68/193/49 65/195/49 67/196/49
f 71/197/50 69/198/50 70/199/50
f 71/197/50 70/199/50 72/200/50
f 65/201/51 66/202/51 70/203/51
f 65/201/51 70/203/51 69/204/51
f 68/205/52 67/206/52 71/207/52
f 68/205/52 71/207/52 72/208/52
f 67/209/53 65/210/53 69/211/53
f 67/209/53 69/211/53 71/212/53
f 72/213/54 70/214/54 66/215/54
f 72/213/54 66/215/54 68/216/54
o r
v 0.125 0.5 0.4375
v 0.125 0.5 -0.5
v 0.125 0 0.4375
v 0.125 0 -0.5
v -0.25 0.5 0.4375
v -0.25 0.5 -0.5
v -0.25 0 0.4375
v -0.25 0 -0.5
v 0.25 0.5 0.5
v 0.25 0.5 -0.5
v 0.25 0 0.5
v 0.25 0 -0.5
v 0.125 0.5 0.5
v 0.125 0.5 -0.5
v 0.125 0 0.5
v 0.125 0 -0.5
vt 0.9375 0.5
vt 0.9375 1
vt 0 1
vt 0 0.5
vt 0.9375 0.5
vt 0.9375 1
vt 0 1
vt 0 0.5
vt 0.375 0.0625
vt 0.375 1
vt 0 1
vt 0 0.0625
vt 0.375 0.0625
vt 0.375 1
vt 0 1
vt 0 0.0625
vt 0.375 0.5
vt 0.375 1
vt 0 1
vt 0 0.5
vt 0.375 0.5
vt 0.375 1
vt 0 1
vt 0 0.5
vt 1 0.5
vt 1 1
vt 0 1
vt 0 0.5
vt 1 0.5
vt 1 1
vt 0 1
vt 0 0.5
vt 0.125 0
vt 0.125 1
vt 0 1
vt 0 0
vt 0.125 0
vt 0.125 1
vt 0 1
vt 0 0
vt 0.125 0.5
vt 0.125 1
vt 0 1
vt 0 0.5
vt 0.125 0.5
vt 0.125 1
vt 0 1
vt 0 0.5
vn 1 0 0
vn -1 0 0
vn 0 1 0
vn 0 -1 0
vn 0 0 1
vn 0 0 -1
vn 1 0 0
vn -1 0 0
vn 0 1 0
vn 0 -1 0
vn 0 0 1
vn 0 0 -1
usemtl m_369e5a79-23e4-7a89-4fb5-2d2b9a0080f9
f 76/217/55 74/218/55 73/219/55
f 76/217/55 73/219/55 75/220/55
f 79/221/56 77/222/56 78/223/56
f 79/221/56 78/223/56 80/224/56
f 73/225/57 74/226/57 78/227/57
f 73/225/57 78/227/57 77/228/57
f 76/229/58 75/230/58 79/231/58
f 76/229/58 79/231/58 80/232/58
f 75/233/59 73/234/59 77/235/59
f 75/233/59 77/235/59 79/236/59
f 80/237/60 78/238/60 74/239/60
f 80/237/60 74/239/60 76/240/60
f 84/241/61 82/242/61 81/243/61
f 84/241/61 81/243/61 83/244/61
usemtl m_165e9098-33e4-2c3b-d315-b009f1bc964a
f 87/245/62 85/246/62 86/247/62
f 87/245/62 86/247/62 88/248/62
usemtl m_369e5a79-23e4-7a89-4fb5-2d2b9a0080f9
f 81/249/63 82/250/63 86/251/63
f 81/249/63 86/251/63 85/252/63
usemtl m_165e9098-33e4-2c3b-d315-b009f1bc964a
f 84/253/64 83/254/64 87/255/64
f 84/253/64 87/255/64 88/256/64
f 83/257/65 81/258/65 85/259/65
f 83/257/65 85/259/65 87/260/65
usemtl m_369e5a79-23e4-7a89-4fb5-2d2b9a0080f9
f 88/261/66 86/262/66 82/263/66
f 88/261/66 82/263/66 84/264/66
o l
v -0.125 0.5 0.4375
v -0.125 0.5 -0.5
v -0.125 0 0.4375
v -0.125 0 -0.5
v 0.25 0.5 0.4375
v 0.25 0.5 -0.5
v 0.25 0 0.4375
v 0.25 0 -0.5
v -0.25 0.5 0.5
v -0.25 0.5 -0.5
v -0.25 0 0.5
v -0.25 0 -0.5
v -0.125 0.5 0.5
v -0.125 0.5 -0.5
v -0.125 0 0.5
v -0.125 0 -0.5
vt 0 1
vt 0.9375 1
vt 0.9375 0.5
vt 0 0.5
vt 0 1
vt 0.9375 1
vt 0.9375 0.5
vt 0 0.5
vt 0 1
vt 0.375 1
vt 0.375 0.0625
vt 0 0.0625
vt 0 1
vt 0.375 1
vt 0.375 0.0625
vt 0 0.0625
vt 0 1
vt 0.375 1
vt 0.375 0.5
vt 0 0.5
vt 0 1
vt 0.375 1
vt 0.375 0.5
vt 0 0.5
vt 0 1
vt 1 1
vt 1 0.5
vt 0 0.5
vt 0 1
vt 1 1
vt 1 0.5
vt 0 0.5
vt 0 1
vt 0.125 1
vt 0.125 0
vt 0 0
vt 0 1
vt 0.125 1
vt 0.125 0
vt 0 0
vt 0 1
vt 0.125 1
vt 0.125 0.5
vt 0 0.5
vt 0 1
vt 0.125 1
vt 0.125 0.5
vt 0 0.5
vn -1 0 0
vn 1 0 0
vn 0 1 0
vn 0 -1 0
vn 0 0 1
vn 0 0 -1
vn -1 0 0
vn 1 0 0
vn 0 1 0
vn 0 -1 0
vn 0 0 1
vn 0 0 -1
usemtl m_369e5a79-23e4-7a89-4fb5-2d2b9a0080f9
f 89/265/67 90/266/67 92/267/67
f 89/265/67 92/267/67 91/268/67
f 94/269/68 93/270/68 95/271/68
f 94/269/68 95/271/68 96/272/68
f 94/273/69 90/274/69 89/275/69
f 94/273/69 89/275/69 93/276/69
f 95/277/70 91/278/70 92/279/70
f 95/277/70 92/279/70 96/280/70
f 93/281/71 89/282/71 91/283/71
f 93/281/71 91/283/71 95/284/71
f 90/285/72 94/286/72 96/287/72
f 90/285/72 96/287/72 92/288/72
f 97/289/73 98/290/73 100/291/73
f 97/289/73 100/291/73 99/292/73
usemtl m_165e9098-33e4-2c3b-d315-b009f1bc964a
f 102/293/74 101/294/74 103/295/74
f 102/293/74 103/295/74 104/296/74
usemtl m_369e5a79-23e4-7a89-4fb5-2d2b9a0080f9
f 102/297/75 98/298/75 97/299/75
f 102/297/75 97/299/75 101/300/75
usemtl m_165e9098-33e4-2c3b-d315-b009f1bc964a
f 103/301/76 99/302/76 100/303/76
f 103/301/76 100/303/76 104/304/76
f 101/305/77 97/306/77 99/307/77
f 101/305/77 99/307/77 103/308/77
usemtl m_369e5a79-23e4-7a89-4fb5-2d2b9a0080f9
f 98/309/78 102/310/78 104/311/78
f 98/309/78 104/311/78 100/312/78
o t
v 0.25 0.375 0.5
v 0.25 0.375 -0.5
v 0.25 0.5 0.5
v 0.25 0.5 -0.5
v -0.25 0.375 0.5
v -0.25 0.375 -0.5
v -0.25 0.5 0.5
v -0.25 0.5 -0.5
v 0.25 0 0.4375
v 0.25 0 -0.5
v 0.25 0.375 0.4375
v 0.25 0.375 -0.5
v -0.25 0 0.4375
v -0.25 0 -0.5
v -0.25 0.375 0.4375
v -0.25 0.375 -0.5
vt 0 1
vt 1 1
vt 1 0.875
vt 0 0.875
vt 0 1
vt 1 1
vt 1 0.875
vt 0 0.875
vt 0 1
vt 0.5 1
vt 0.5 0
vt 0 0
vt 0 1
vt 0.5 1
vt 0.5 0
vt 0 0
vt 0 1
vt 0.5 1
vt 0.5 0.875
vt 0 0.875
vt 0 1
vt 0.5 1
vt 0.5 0.875
vt 0 0.875
vt 0 1
vt 0.9375 1
vt 0.9375 0.625
vt 0 0.625
vt 0 1
vt 0.9375 1
vt 0.9375 0.625
vt 0 0.625
vt 0 1
vt 0.5 1
vt 0.5 0.0625
vt 0 0.0625
vt 0 1
vt 0.5 1
vt 0.5 0.0625
vt 0 0.0625
vt 0 1
vt 0.5 1
vt 0.5 0.625
vt 0 0.625
vt 0 1
vt 0.5 1
vt 0.5 0.625
vt 0 0.625
vn 1 0 0
vn -1 0 0
vn 0 -1 0
vn 0 1 0
vn 0 0 1
vn 0 0 -1
vn 1 0 0
vn -1 0 0
vn 0 -1 0
vn 0 1 0
vn 0 0 1
vn 0 0 -1
usemtl m_369e5a79-23e4-7a89-4fb5-2d2b9a0080f9
f 105/313/79 106/314/79 108/315/79
f 105/313/79 108/315/79 107/316/79
f 110/317/80 109/318/80 111/319/80
f 110/317/80 111/319/80 112/320/80
usemtl m_165e9098-33e4-2c3b-d315-b009f1bc964a
f 110/321/81 106/322/81 105/323/81
f 110/321/81 105/323/81 109/324/81
f 111/325/82 107/326/82 108/327/82
f 111/325/82 108/327/82 112/328/82
f 109/329/83 105/330/83 107/331/83
f 109/329/83 107/331/83 111/332/83
usemtl m_369e5a79-23e4-7a89-4fb5-2d2b9a0080f9
f 106/333/84 110/334/84 112/335/84
f 106/333/84 112/335/84 108/336/84
f 113/337/85 114/338/85 116/339/85
f 113/337/85 116/339/85 115/340/85
f 118/341/86 117/342/86 119/343/86
f 118/341/86 119/343/86 120/344/86
f 118/345/87 114/346/87 113/347/87
f 118/345/87 113/347/87 117/348/87
f 119/349/88 115/350/88 116/351/88
f 119/349/88 116/351/88 120/352/88
f 117/353/89 113/354/89 115/355/89
f 117/353/89 115/355/89 119/356/89
f 114/357/90 118/358/90 120/359/90
f 114/357/90 120/359/90 116/360/90
o rt
v 0.25 0 0.5
v 0.25 0 -0.5
v 0.25 0.375 0.5
v 0.25 0.375 -0.5
v 0.125 0 0.5
v 0.125 0 -0.5
v 0.125 0.375 0.5
v 0.125 0.375 -0.5
v 0.25 0.375 0.5
v 0.25 0.375 -0.5
v 0.25 0.5 0.5
v 0.25 0.5 -0.5
v -0.25 0.375 0.5
v -0.25 0.375 -0.5
v -0.25 0.5 0.5
v -0.25 0.5 -0.5
v 0.125 0 0.4375
v 0.125 0 -0.5
v 0.125 0.375 0.4375
v 0.125 0.375 -0.5
v -0.25 0 0.4375
v -0.25 0 -0.5
v -0.25 0.375 0.4375
v -0.25 0.375 -0.5
vt 0 1
vt 1 1
vt 1 0.625
vt 0 0.625
vt 0 1
vt 1 1
vt 1 0.625
vt 0 0.625
vt 0 1
vt 0.125 1
vt 0.125 0
vt 0 0
vt 0 1
vt 0.125 1
vt 0.125 0
vt 0 0
vt 0 1
vt 0.125 1
vt 0.125 0.625
vt 0 0.625
vt 0 1
vt 0.125 1
vt 0.125 0.625
vt 0 0.625
vt 0 1
vt 1 1
vt 1 0.875
vt 0 0.875
vt 0 1
vt 1 1
vt 1 0.875
vt 0 0.875
vt 0 1
vt 0.5 1
vt 0.5 0
vt 0 0
vt 0 1
vt 0.5 1
vt 0.5 0
vt 0 0
vt 0 1
vt 0.5 1
vt 0.5 0.875
vt 0 0.875
vt 0 1
vt 0.5 1
vt 0.5 0.875
vt 0 0.875
vt 0 1
vt 0.9375 1
vt 0.9375 0.625
vt 0 0.625
vt 0 1
vt 0.9375 1
vt 0.9375 0.625
vt 0 0.625
vt 0 1
vt 0.375 1
vt 0.375 0.0625
vt 0 0.0625
vt 0 1
vt 0.375 1
vt 0.375 0.0625
vt 0 0.0625
vt 0 1
vt 0.375 1
vt 0.375 0.625
vt 0 0.625
vt 0 1
vt 0.375 1
vt 0.375 0.625
vt 0 0.625
vn 1 0 0
vn -1 0 0
vn 0 -1 0
vn 0 1 0
vn 0 0 1
vn 0 0 -1
vn 1 0 0
vn -1 0 0
vn 0 -1 0
vn 0 1 0
vn 0 0 1
vn 0 0 -1
vn 1 0 0
vn -1 0 0
vn 0 -1 0
vn 0 1 0
vn 0 0 1
vn 0 0 -1
usemtl m_369e5a79-23e4-7a89-4fb5-2d2b9a0080f9
f 121/361/91 122/362/91 124/363/91
f 121/361/91 124/363/91 123/364/91
usemtl m_165e9098-33e4-2c3b-d315-b009f1bc964a
f 126/365/92 125/366/92 127/367/92
f 126/365/92 127/367/92 128/368/92
usemtl m_369e5a79-23e4-7a89-4fb5-2d2b9a0080f9
f 126/369/93 122/370/93 121/371/93
f 126/369/93 121/371/93 125/372/93
usemtl m_165e9098-33e4-2c3b-d315-b009f1bc964a
f 127/373/94 123/374/94 124/375/94
f 127/373/94 124/375/94 128/376/94
f 125/377/95 121/378/95 123/379/95
f 125/377/95 123/379/95 127/380/95
usemtl m_369e5a79-23e4-7a89-4fb5-2d2b9a0080f9
f 122/381/96 126/382/96 128/383/96
f 122/381/96 128/383/96 124/384/96
f 129/385/97 130/386/97 132/387/97
f 129/385/97 132/387/97 131/388/97
f 134/389/98 133/390/98 135/391/98
f 134/389/98 135/391/98 136/392/98
usemtl m_165e9098-33e4-2c3b-d315-b009f1bc964a
f 134/393/99 130/394/99 129/395/99
f 134/393/99 129/395/99 133/396/99
f 135/397/100 131/398/100 132/399/100
f 135/397/100 132/399/100 136/400/100
f 133/401/101 129/402/101 131/403/101
f 133/401/101 131/403/101 135/404/101
usemtl m_369e5a79-23e4-7a89-4fb5-2d2b9a0080f9
f 130/405/102 134/406/102 136/407/102
f 130/405/102 136/407/102 132/408/102
f 137/409/103 138/410/103 140/411/103
f 137/409/103 140/411/103 139/412/103
f 142/413/104 141/414/104 143/415/104
f 142/413/104 143/415/104 144/416/104
f 142/417/105 138/418/105 137/419/105
f 142/417/105 137/419/105 141/420/105
f 143/421/106 139/422/106 140/423/106
f 143/421/106 140/423/106 144/424/106
f 141/425/107 137/426/107 139/427/107
f 141/425/107 139/427/107 143/428/107
f 138/429/108 142/430/108 144/431/108
f 138/429/108 144/431/108 140/432/108
o lt
v 0.25 0 0.4375
v 0.25 0 -0.5
v 0.25 0.375 0.4375
v 0.25 0.375 -0.5
v -0.125 0 0.4375
v -0.125 0 -0.5
v -0.125 0.375 0.4375
v -0.125 0.375 -0.5
v 0.25 0.375 0.5
v 0.25 0.375 -0.5
v 0.25 0.5 0.5
v 0.25 0.5 -0.5
v -0.25 0.375 0.5
v -0.25 0.375 -0.5
v -0.25 0.5 0.5
v -0.25 0.5 -0.5
v -0.125 0 0.5
v -0.125 0 -0.5
v -0.125 0.375 0.5
v -0.125 0.375 -0.5
v -0.25 0 0.5
v -0.25 0 -0.5
v -0.25 0.375 0.5
v -0.25 0.375 -0.5
vt 0 1
vt 0.9375 1
vt 0.9375 0.625
vt 0 0.625
vt 0 1
vt 0.9375 1
vt 0.9375 0.625
vt 0 0.625
vt 0 1
vt 0.375 1
vt 0.375 0.0625
vt 0 0.0625
vt 0 1
vt 0.375 1
vt 0.375 0.0625
vt 0 0.0625
vt 0 1
vt 0.375 1
vt 0.375 0.625
vt 0 0.625
vt 0 1
vt 0.375 1
vt 0.375 0.625
vt 0 0.625
vt 0 1
vt 1 1
vt 1 0.875
vt 0 0.875
vt 0 1
vt 1 1
vt 1 0.875
vt 0 0.875
vt 0 1
vt 0.5 1
vt 0.5 0
vt 0 0
vt 0 1
vt 0.5 1
vt 0.5 0
vt 0 0
vt 0 1
vt 0.5 1
vt 0.5 0.875
vt 0 0.875
vt 0 1
vt 0.5 1
vt 0.5 0.875
vt 0 0.875
vt 0 1
vt 1 1
vt 1 0.625
vt 0 0.625
vt 0 1
vt 1 1
vt 1 0.625
vt 0 0.625
vt 0 1
vt 0.125 1
vt 0.125 0
vt 0 0
vt 0 1
vt 0.125 1
vt 0.125 0
vt 0 0
vt 0 1
vt 0.125 1
vt 0.125 0.625
vt 0 0.625
vt 0 1
vt 0.125 1
vt 0.125 0.625
vt 0 0.625
vn 1 0 0
vn -1 0 0
vn 0 -1 0
vn 0 1 0
vn 0 0 1
vn 0 0 -1
vn 1 0 0
vn -1 0 0
vn 0 -1 0
vn 0 1 0
vn 0 0 1
vn 0 0 -1
vn 1 0 0
vn -1 0 0
vn 0 -1 0
vn 0 1 0
vn 0 0 1
vn 0 0 -1
usemtl m_369e5a79-23e4-7a89-4fb5-2d2b9a0080f9
f 145/433/109 146/434/109 148/435/109
f 145/433/109 148/435/109 147/436/109
f 150/437/110 149/438/110 151/439/110
f 150/437/110 151/439/110 152/440/110
f 150/441/111 146/442/111 145/443/111
f 150/441/111 145/443/111 149/444/111
f 151/445/112 147/446/112 148/447/112
f 151/445/112 148/447/112 152/448/112
f 149/449/113 145/450/113 147/451/113
f 149/449/113 147/451/113 151/452/113
f 146/453/114 150/454/114 152/455/114
f 146/453/114 152/455/114 148/456/114
f 153/457/115 154/458/115 156/459/115
f 153/457/115 156/459/115 155/460/115
f 158/461/116 157/462/116 159/463/116
f 158/461/116 159/463/116 160/464/116
usemtl m_165e9098-33e4-2c3b-d315-b009f1bc964a
f 158/465/117 154/466/117 153/467/117
f 158/465/117 153/467/117 157/468/117
f 159/469/118 155/470/118 156/471/118
f 159/469/118 156/471/118 160/472/118
f 157/473/119 153/474/119 155/475/119
f 157/473/119 155/475/119 159/476/119
usemtl m_369e5a79-23e4-7a89-4fb5-2d2b9a0080f9
f 154/477/120 158/478/120 160/479/120
f 154/477/120 160/479/120 156/480/120
usemtl m_165e9098-33e4-2c3b-d315-b009f1bc964a
f 161/481/121 162/482/121 164/483/121
f 161/481/121 164/483/121 163/484/121
usemtl m_369e5a79-23e4-7a89-4fb5-2d2b9a0080f9
f 166/485/122 165/486/122 167/487/122
f 166/485/122 167/487/122 168/488/122
f 166/489/123 162/490/123 161/491/123
f 166/489/123 161/491/123 165/492/123
usemtl m_165e9098-33e4-2c3b-d315-b009f1bc964a
f 167/493/124 163/494/124 164/495/124
f 167/493/124 164/495/124 168/496/124
f 165/497/125 161/498/125 163/499/125
f 165/497/125 163/499/125 167/500/125
usemtl m_369e5a79-23e4-7a89-4fb5-2d2b9a0080f9
f 162/501/126 166/502/126 168/503/126
f 162/501/126 168/503/126 164/504/126