# Made in Blockbench 4.12.5
mtllib mtr_pids_4.mtl

o cube
v 0.4375 1 -0.434375
v 0.4375 1 -0.434375
v 0.4375 0.0625 -0.434375
v 0.4375 0.0625 -0.434375
v -0.4375 1 -0.434375
v -0.4375 1 -0.434375
v -0.4375 0.0625 -0.434375
v -0.4375 0.0625 -0.434375
vt 0.0625 1
vt 0.9375 1
vt 0.9375 0.0625
vt 0.0625 0.0625
vn 0 0 1
usemtl m_c6571aa4-6d63-bb84-4dce-1e39d9fa340a
f 3/3/1 1/2/1 6/1/1
f 8/4/1 3/3/1 6/1/1
o cube
v 0.5 1 -0.4375
v 0.5 1 -0.5
v 0.5 0 -0.4375
v 0.5 0 -0.5
v -0.5 1 -0.5
v -0.5 1 -0.4375
v -0.5 0 -0.5
v -0.5 0 -0.4375
vt 0 1
vt 1 1
vt 1 0
vt 0 0
vt 0.9375 1
vt 1 1
vt 1 0
vt 0.9375 0
vt 0 1
vt 1 1
vt 1 0
vt 0 0
vt 0 1
vt 0.0625 1
vt 0.0625 0
vt 0 0
vt 0 1
vt 1 1
vt 1 0.9375
vt 0 0.9375
vt 0 0.0625
vt 1 0.0625
vt 1 0
vt 0 0
vn 0 0 -1
vn 1 0 0
vn 0 0 1
vn -1 0 0
vn 0 1 0
vn 0 -1 0
usemtl m_5dde9197-4811-12cb-75b9-d240a3fdc61b
f 15/7/2 13/6/2 10/5/2
f 12/8/2 15/7/2 10/5/2
f 12/11/3 10/10/3 9/9/3
f 11/12/3 12/11/3 9/9/3
f 11/15/4 9/14/4 14/13/4
f 16/16/4 11/15/4 14/13/4
f 16/19/5 14/18/5 13/17/5
f 15/20/5 16/19/5 13/17/5
f 9/23/6 10/22/6 13/21/6
f 14/24/6 9/23/6 13/21/6
f 12/27/7 11/26/7 16/25/7
f 15/28/7 12/27/7 16/25/7
o cube
v 0.4375 1.9375 -0.434375
v 0.4375 1.9375 -0.434375
v 0.4375 1 -0.434375
v 0.4375 1 -0.434375
v -0.4375 1.9375 -0.434375
v -0.4375 1.9375 -0.434375
v -0.4375 1 -0.434375
v -0.4375 1 -0.434375
vt 0.0625 1
vt 0.9375 1
vt 0.9375 0.0625
vt 0.0625 0.0625
vn 0 0 1
usemtl m_c6571aa4-6d63-bb84-4dce-1e39d9fa340a
f 19/31/8 17/30/8 22/29/8
f 24/32/8 19/31/8 22/29/8
o cube
v 0.5 2 -0.4375
v 0.5 2 -0.5
v 0.5 1 -0.4375
v 0.5 1 -0.5
v -0.5 2 -0.5
v -0.5 2 -0.4375
v -0.5 1 -0.5
v -0.5 1 -0.4375
vt 0 1
vt 1 1
vt 1 0
vt 0 0
vt 0.9375 1
vt 1 1
vt 1 0
vt 0.9375 0
vt 0 1
vt 1 1
vt 1 0
vt 0 0
vt 0 1
vt 0.0625 1
vt 0.0625 0
vt 0 0
vt 0 1
vt 1 1
vt 1 0.9375
vt 0 0.9375
vt 0 0.0625
vt 1 0.0625
vt 1 0
vt 0 0
vn 0 0 -1
vn 1 0 0
vn 0 0 1
vn -1 0 0
vn 0 1 0
vn 0 -1 0
usemtl m_5dde9197-4811-12cb-75b9-d240a3fdc61b
f 31/35/9 29/34/9 26/33/9
f 28/36/9 31/35/9 26/33/9
f 28/39/10 26/38/10 25/37/10
f 27/40/10 28/39/10 25/37/10
f 27/43/11 25/42/11 30/41/11
f 32/44/11 27/43/11 30/41/11
f 32/47/12 30/46/12 29/45/12
f 31/48/12 32/47/12 29/45/12
f 25/51/13 26/50/13 29/49/13
f 30/52/13 25/51/13 29/49/13
f 28/55/14 27/54/14 32/53/14
f 31/56/14 28/55/14 32/53/14