# Made in Blockbench 4.12.3
mtllib mtr_pids_3.mtl

o Pole
v 0.03125 0.59375 0.78125
v -0.03125 0.59375 0.78125
v -0.03125 1 0.78125
v 0.03125 1 0.78125
v 0.03125 0.59375 0.84375
v 0.03125 1 0.84375
v -0.03125 0.59375 0.84375
v -0.03125 1 0.84375
v 0.03125 0.59375 -0.84375
v -0.03125 0.59375 -0.84375
v -0.03125 1 -0.84375
v 0.03125 1 -0.84375
v 0.03125 0.59375 -0.78125
v 0.03125 1 -0.78125
v -0.03125 0.59375 -0.78125
v -0.03125 1 -0.78125
v 0.125 0 -1
v 0.078125 0 -1
v 0.078125 0.625 -1
v 0.125 0.625 -1
v 0.125 0 0
v 0.125 0.625 0
v 0.078125 0 0
v 0.078125 0.625 0
v -0.078125 0 -1
v -0.125 0 -1
v -0.125 0.625 -1
v -0.078125 0.625 -1
v -0.078125 0 0
v -0.078125 0.625 0
v -0.125 0 0
v -0.125 0.625 0
v -0.078125 0 1
v -0.078125 0.625 1
v -0.125 0 1
v -0.125 0.625 1
v 0.125 0 1
v 0.125 0.625 1
v 0.078125 0 1
v 0.078125 0.625 1
v 0.078125 0.03125 -0.9375
v -0.078125 0.03125 -0.9375
v -0.078125 0.59375 -0.9375
v 0.078125 0.59375 -0.9375
v 0.078125 0.03125 0
v 0.078125 0.59375 0
v -0.078125 0.03125 0
v -0.078125 0.59375 0
v 0.078125 0.03125 0.9375
v 0.078125 0.59375 0.9375
v -0.078125 0.03125 0.9375
v -0.078125 0.59375 0.9375
v 0.12812500000000004 0.043749999999999956 0
v 0.12812500000000004 0.04375000000000001 -0.953125
v 0.12812500000000004 0.58125 -0.953125
v 0.12812500000000004 0.58125 0
v -0.12812500000000004 0.04375000000000001 -0.953125
v -0.12812500000000004 0.043749999999999956 0
v -0.12812500000000004 0.58125 0
v -0.12812500000000004 0.58125 -0.953125
v 0.12812500000000004 0.04375000000000001 0.953125
v 0.12812500000000004 0.58125 0.953125
v -0.12812500000000004 0.04375000000000001 0.953125
v -0.12812500000000004 0.58125 0.953125
vt 0.46875 0.59375
vt 0.53125 0.59375
vt 0.53125 1
vt 0.46875 1
vt 0 0.59375
vt 0.0625 0.59375
vt 0.0625 1
vt 0 1
vt 0.46875 0.59375
vt 0.53125 0.59375
vt 0.53125 1
vt 0.46875 1
vt 0.9375 0.59375
vt 1 0.59375
vt 1 1
vt 0.9375 1
vt 0.46875 0
vt 0.53125 0
vt 0.53125 0.0625
vt 0.46875 0.0625
vt 0.46875 0.59375
vt 0.53125 0.59375
vt 0.53125 1
vt 0.46875 1
vt 0.9375 0.59375
vt 1 0.59375
vt 1 1
vt 0.9375 1
vt 0.46875 0.59375
vt 0.53125 0.59375
vt 0.53125 1
vt 0.46875 1
vt 0 0.59375
vt 0.0625 0.59375
vt 0.0625 1
vt 0 1
vt 0.46875 0.9375
vt 0.53125 0.9375
vt 0.53125 1
vt 0.46875 1
vt 0.375 0
vt 0.421875 0
vt 0.421875 0.625
vt 0.375 0.625
vt 0 0
vt 1 0
vt 1 0.625
vt 0 0.625
vt 0 0
vt 1 0
vt 1 0.625
vt 0 0.625
vt 0.578125 0
vt 0.625 0
vt 0.625 1
vt 0.578125 1
vt 0.578125 0
vt 0.625 0
vt 0.625 1
vt 0.578125 1
vt 0.578125 0
vt 0.625 0
vt 0.625 0.625
vt 0.578125 0.625
vt 0 0
vt 1 0
vt 1 0.625
vt 0 0.625
vt 0 0
vt 1 0
vt 1 0.625
vt 0 0.625
vt 0.375 0
vt 0.421875 0
vt 0.421875 1
vt 0.375 1
vt 0.375 0
vt 0.421875 0
vt 0.421875 1
vt 0.375 1
vt 0 0
vt 1 0
vt 1 0.625
vt 0 0.625
vt 0.375 0
vt 0.421875 0
vt 0.421875 0.625
vt 0.375 0.625
vt 0 0
vt 1 0
vt 1 0.625
vt 0 0.625
vt 0.375 0
vt 0.421875 0
vt 0.421875 1
vt 0.375 1
vt 0.375 0
vt 0.421875 0
vt 0.421875 1
vt 0.375 1
vt 0 0
vt 1 0
vt 1 0.625
vt 0 0.625
vt 0.578125 0
vt 0.625 0
vt 0.625 0.625
vt 0.578125 0.625
vt 0 0
vt 1 0
vt 1 0.625
vt 0 0.625
vt 0.578125 0
vt 0.625 0
vt 0.625 1
vt 0.578125 1
vt 0.578125 0
vt 0.625 0
vt 0.625 1
vt 0.578125 1
vt 0.421875 0.03125
vt 0.578125 0.03125
vt 0.578125 0.59375
vt 0.421875 0.59375
vt 0.0625 0.03125
vt 1 0.03125
vt 1 0.59375
vt 0.0625 0.59375
vt 0 0.03125
vt 0.9375 0.03125
vt 0.9375 0.59375
vt 0 0.59375
vt 0.421875 0.0625
vt 0.578125 0.0625
vt 0.578125 1
vt 0.421875 1
vt 0.421875 0
vt 0.578125 0
vt 0.578125 0.9375
vt 0.421875 0.9375
vt 0 0.03125
vt 0.9375 0.03125
vt 0.9375 0.59375
vt 0 0.59375
vt 0.421875 0.03125
vt 0.578125 0.03125
vt 0.578125 0.59375
vt 0.421875 0.59375
vt 0.0625 0.03125
vt 1 0.03125
vt 1 0.59375
vt 0.0625 0.59375
vt 0.421875 0
vt 0.578125 0
vt 0.578125 0.9375
vt 0.421875 0.9375
vt 0.421875 0.0625
vt 0.578125 0.0625
vt 0.578125 1
vt 0.421875 1
vt 0.046875 0.043749999999999956
vt 1 0.043749999999999956
vt 1 0.58125
vt 0.046875 0.58125
vt 0 0.043749999999999956
vt 0.953125 0.043749999999999956
vt 0.953125 0.58125
vt 0 0.58125
vt 0 0.043749999999999956
vt 0.953125 0.043749999999999956
vt 0.953125 0.58125
vt 0 0.58125
vt 0.046875 0.043749999999999956
vt 1 0.043749999999999956
vt 1 0.58125
vt 0.046875 0.58125
vn 0 0 -1
vn 1 0 0
vn 0 0 1
vn -1 0 0
vn 0 1 0
vn 0 0 -1
vn 1 0 0
vn 0 0 1
vn -1 0 0
vn 0 1 0
vn 0 0 -1
vn 1 0 0
vn -1 0 0
vn 0 1 0
vn 0 -1 0
vn 0 0 -1
vn 1 0 0
vn -1 0 0
vn 0 1 0
vn 0 -1 0
vn 1 0 0
vn 0 0 1
vn -1 0 0
vn 0 1 0
vn 0 -1 0
vn 1 0 0
vn 0 0 1
vn -1 0 0
vn 0 1 0
vn 0 -1 0
vn 0 0 -1
vn 1 0 0
vn -1 0 0
vn 0 1 0
vn 0 -1 0
vn 1 0 0
vn 0 0 1
vn -1 0 0
vn 0 1 0
vn 0 -1 0
vn 1 0 0
vn -1 0 0
vn 1 0 0
vn -1 0 0
usemtl m_fdc9c81e-00f6-b345-6474-55a6d4269c58
f 1/1/1 2/2/1 3/3/1 4/4/1
f 5/5/2 1/6/2 4/7/2 6/8/2
f 7/9/3 5/10/3 6/11/3 8/12/3
f 2/13/4 7/14/4 8/15/4 3/16/4
f 8/17/5 6/18/5 4/19/5 3/20/5
f 9/21/6 10/22/6 11/23/6 12/24/6
f 13/25/7 9/26/7 12/27/7 14/28/7
f 15/29/8 13/30/8 14/31/8 16/32/8
f 10/33/9 15/34/9 16/35/9 11/36/9
f 16/37/10 14/38/10 12/39/10 11/40/10
f 17/41/11 18/42/11 19/43/11 20/44/11
f 21/45/12 17/46/12 20/47/12 22/48/12
f 18/49/13 23/50/13 24/51/13 19/52/13
f 24/53/14 22/54/14 20/55/14 19/56/14
f 18/57/15 17/58/15 21/59/15 23/60/15
f 25/61/16 26/62/16 27/63/16 28/64/16
f 29/65/17 25/66/17 28/67/17 30/68/17
f 26/69/18 31/70/18 32/71/18 27/72/18
f 32/73/19 30/74/19 28/75/19 27/76/19
f 26/77/20 25/78/20 29/79/20 31/80/20
f 33/81/21 29/82/21 30/83/21 34/84/21
f 35/85/22 33/86/22 34/87/22 36/88/22
f 31/89/23 35/90/23 36/91/23 32/92/23
f 36/93/24 34/94/24 30/95/24 32/96/24
f 31/97/25 29/98/25 33/99/25 35/100/25
f 37/101/26 21/102/26 22/103/26 38/104/26
f 39/105/27 37/106/27 38/107/27 40/108/27
f 23/109/28 39/110/28 40/111/28 24/112/28
f 40/113/29 38/114/29 22/115/29 24/116/29
f 23/117/30 21/118/30 37/119/30 39/120/30
usemtl m_7d08a584-fe23-263c-e6bb-73db5b9666d0
f 41/121/31 42/122/31 43/123/31 44/124/31
f 45/125/32 41/126/32 44/127/32 46/128/32
f 42/129/33 47/130/33 48/131/33 43/132/33
f 48/133/34 46/134/34 44/135/34 43/136/34
f 42/137/35 41/138/35 45/139/35 47/140/35
f 49/141/36 45/142/36 46/143/36 50/144/36
f 51/145/37 49/146/37 50/147/37 52/148/37
f 47/149/38 51/150/38 52/151/38 48/152/38
f 52/153/39 50/154/39 46/155/39 48/156/39
f 47/157/40 45/158/40 49/159/40 51/160/40
usemtl m_5bcb0d58-ccc9-90e4-90bf-4496fe9daf15
f 53/161/41 54/162/41 55/163/41 56/164/41
f 57/165/42 58/166/42 59/167/42 60/168/42
f 61/169/43 53/170/43 56/171/43 62/172/43
f 58/173/44 63/174/44 64/175/44 59/176/44