# Made in Blockbench 4.12.3
mtllib jcm_on_wall.mtl

o cube
v 0.9999375 0.9999375 -0.49993750000000003
v 0.9999375 0.9999375 -0.8749375
v 0.9999375 0.0000625 -0.49993750000000003
v 0.9999375 0.0000625 -0.8749375
v -0.9999375 0.9999375 -0.49993750000000003
v -0.9999375 0.9999375 -0.8749375
v -0.9999375 0.0000625 -0.49993750000000003
v -0.9999375 0.0000625 -0.8749375
v 0.96875 0.96875 -0.49988125
v 0.96875 0.96875 -0.49988125
v 0.96875 0.03125 -0.49988125
v 0.96875 0.03125 -0.49988125
v -0.96875 0.96875 -0.49988125
v -0.96875 0.96875 -0.49988125
v -0.96875 0.03125 -0.49988125
v -0.96875 0.03125 -0.49988125
vt 0.375 0
vt 0.375 1
vt 0 1
vt 0 0
vt 0.375 0
vt 0.375 1
vt 0 1
vt 0 0
vt 1 0.625
vt 1 1
vt 0 1
vt 0 0.625
vt 1 0.625
vt 1 1
vt 0 1
vt 0 0.625
vt 1 0
vt 1 1
vt 0 1
vt 0 0
vt 1 0
vt 1 1
vt 0 1
vt 0 0
vt 0 1
vt 0 1
vt 0 0
vt 0 0
vt 0 1
vt 0 1
vt 0 0
vt 0 0
vt 1 1
vt 0 1
vt 1 1
vt 0 1
vt 1 1
vt 0 1
vt 1 1
vt 0 1
vt 1 0
vt 1 1
vt 0 1
vt 0 0
vt 1 0
vt 1 1
vt 0 1
vt 0 0
vn 1 0 0
vn -1 0 0
vn 0 1 0
vn 0 -1 0
vn 0 0 1
vn 0 0 -1
vn 0 0 0
vn 0 0 0
vn 0 0 0
vn 0 0 0
vn 0 0 1
vn 0 0 -1
usemtl m_a04b6a00-4901-ebc7-76c2-de6ce0a5ad3f
f 4/1/1 2/2/1 1/3/1 3/4/1
f 7/5/2 5/6/2 6/7/2 8/8/2
f 1/9/3 2/10/3 6/11/3 5/12/3
f 4/13/4 3/14/4 7/15/4 8/16/4
f 3/17/5 1/18/5 5/19/5 7/20/5
f 8/21/6 6/22/6 2/23/6 4/24/6
usemtl m_5acb540f-9d12-980e-a626-ba5256ab1e4d
f 10/25/7 9/26/7 12/27/7 11/28/7
f 13/29/8 14/30/8 15/31/8 16/32/8
f 10/33/9 14/34/9 9/35/9 13/36/9
f 11/37/10 15/38/10 12/39/10 16/40/10
f 11/41/11 9/42/11 13/43/11 15/44/11
f 16/45/12 14/46/12 10/47/12 12/48/12