# Made in Blockbench 4.12.3
mtllib jcm_1.mtl

o Main
v 0.0625 0.6875 0.625
v 0.0625 0.0625 0.625
v -0.0625 0.6875 0.625
v -0.0625 0.0625 0.625
v 0.03125 1.5 0.59375
v 0.03125 1.5 0.53125
v 0.03125 0.6875 0.59375
v 0.03125 0.6875 0.53125
v -0.03125 1.5 0.59375
v -0.03125 1.5 0.53125
v -0.03125 0.6875 0.59375
v -0.03125 0.6875 0.53125
v -0.0625 0.8125 0.75
v -0.0625 0.8125 0
v -0.0625 -0.0625 0.75
v -0.0625 -0.0625 0
v -0.125 0.8125 0.75
v -0.125 0.8125 0
v -0.125 -0.0625 0.75
v -0.125 -0.0625 0
v 0.125 0.8125 0.75
v 0.125 0.8125 0
v 0.125 -0.0625 0.75
v 0.125 -0.0625 0
v 0.0625 0.8125 0.75
v 0.0625 0.8125 0
v 0.0625 -0.0625 0.75
v 0.0625 -0.0625 0
v 0.0625 0.6875 -0.625
v 0.0625 0.6875 0
v 0.0625 0.0625 -0.625
v 0.0625 0.0625 0
v -0.0625 0.6875 -0.625
v -0.0625 0.6875 0
v -0.0625 0.0625 -0.625
v -0.0625 0.0625 0
v 0.03125 1.5 -0.59375
v 0.03125 1.5 -0.53125
v 0.03125 0.6875 -0.59375
v 0.03125 0.6875 -0.53125
v -0.03125 1.5 -0.59375
v -0.03125 1.5 -0.53125
v -0.03125 0.6875 -0.59375
v -0.03125 0.6875 -0.53125
v -0.0625 0.8125 -0.75
v -0.0625 -0.0625 -0.75
v -0.125 0.8125 -0.75
v -0.125 -0.0625 -0.75
v 0.125 0.8125 -0.75
v 0.125 -0.0625 -0.75
v 0.0625 0.8125 -0.75
v 0.0625 -0.0625 -0.75
vt 1 0
vt 1 0.6875
vt 0 0.6875
vt 0 0
vt 1 0
vt 1 0.6875
vt 0 0.6875
vt 0 0
vt 0.625 0
vt 0.625 1
vt 0.375 1
vt 0.375 0
vt 0.625 0
vt 0.625 1
vt 0.375 1
vt 0.375 0
vt 0.625 0
vt 0.625 0.6875
vt 0.375 0.6875
vt 0.375 0
vt 0 1
vt 0 1
vt 0 1
vt 0 1
vt 0.21875 0.6875
vt 0.21875 1
vt 0.15625 1
vt 0.15625 0.6875
vt 0.84375 0.6875
vt 0.84375 1
vt 0.78125 1
vt 0.78125 0.6875
vt 0.53125 0.15625
vt 0.53125 0.21875
vt 0.46875 0.21875
vt 0.46875 0.15625
vt 0 1
vt 0 1
vt 0 1
vt 0 1
vt 0.53125 0.6875
vt 0.53125 1
vt 0.46875 1
vt 0.46875 0.6875
vt 0.53125 0.6875
vt 0.53125 1
vt 0.46875 1
vt 0.46875 0.6875
vt 0.75 0.125
vt 0.75 1
vt 0 1
vt 0 0.125
vt 0.75 0.125
vt 0.75 1
vt 0 1
vt 0 0.125
vt 0.0625 0.25
vt 0.0625 1
vt 0 1
vt 0 0.25
vt 0.0625 0.25
vt 0.0625 1
vt 0 1
vt 0 0.25
vt 0.0625 0.125
vt 0.0625 1
vt 0 1
vt 0 0.125
vt 0.0625 0.125
vt 0.0625 1
vt 0 1
vt 0 0.125
vt 0.75 0.125
vt 0.75 1
vt 0 1
vt 0 0.125
vt 0.75 0.125
vt 0.75 1
vt 0 1
vt 0 0.125
vt 0.0625 0.25
vt 0.0625 1
vt 0 1
vt 0 0.25
vt 0.0625 0.25
vt 0.0625 1
vt 0 1
vt 0 0.25
vt 0.0625 0.125
vt 0.0625 1
vt 0 1
vt 0 0.125
vt 0.0625 0.125
vt 0.0625 1
vt 0 1
vt 0 0.125
vt 0 0.6875
vt 1 0.6875
vt 1 0
vt 0 0
vt 0 0.6875
vt 1 0.6875
vt 1 0
vt 0 0
vt 0.375 1
vt 0.625 1
vt 0.625 0
vt 0.375 0
vt 0.375 1
vt 0.625 1
vt 0.625 0
vt 0.375 0
vt 0.375 0.6875
vt 0.625 0.6875
vt 0.625 0
vt 0.375 0
vt 0 1
vt 0 1
vt 0 1
vt 0 1
vt 0.15625 1
vt 0.21875 1
vt 0.21875 0.6875
vt 0.15625 0.6875
vt 0.78125 1
vt 0.84375 1
vt 0.84375 0.6875
vt 0.78125 0.6875
vt 0.46875 0.21875
vt 0.53125 0.21875
vt 0.53125 0.15625
vt 0.46875 0.15625
vt 0 1
vt 0 1
vt 0 1
vt 0 1
vt 0.46875 1
vt 0.53125 1
vt 0.53125 0.6875
vt 0.46875 0.6875
vt 0.46875 1
vt 0.53125 1
vt 0.53125 0.6875
vt 0.46875 0.6875
vt 0 1
vt 0.75 1
vt 0.75 0.125
vt 0 0.125
vt 0 1
vt 0.75 1
vt 0.75 0.125
vt 0 0.125
vt 0 1
vt 0.0625 1
vt 0.0625 0.25
vt 0 0.25
vt 0 1
vt 0.0625 1
vt 0.0625 0.25
vt 0 0.25
vt 0 1
vt 0.0625 1
vt 0.0625 0.125
vt 0 0.125
vt 0 1
vt 0.0625 1
vt 0.0625 0.125
vt 0 0.125
vt 0 1
vt 0.75 1
vt 0.75 0.125
vt 0 0.125
vt 0 1
vt 0.75 1
vt 0.75 0.125
vt 0 0.125
vt 0 1
vt 0.0625 1
vt 0.0625 0.25
vt 0 0.25
vt 0 1
vt 0.0625 1
vt 0.0625 0.25
vt 0 0.25
vt 0 1
vt 0.0625 1
vt 0.0625 0.125
vt 0 0.125
vt 0 1
vt 0.0625 1
vt 0.0625 0.125
vt 0 0.125
vn 1 0 0
vn -1 0 0
vn 0 1 0
vn 0 -1 0
vn 0 0 1
vn 0 0 -1
vn 1 0 0
vn -1 0 0
vn 0 1 0
vn 0 -1 0
vn 0 0 1
vn 0 0 -1
vn 1 0 0
vn -1 0 0
vn 0 1 0
vn 0 -1 0
vn 0 0 1
vn 0 0 -1
vn 1 0 0
vn -1 0 0
vn 0 1 0
vn 0 -1 0
vn 0 0 1
vn 0 0 -1
vn 1 0 0
vn -1 0 0
vn 0 1 0
vn 0 -1 0
vn 0 0 -1
vn 0 0 1
vn 1 0 0
vn -1 0 0
vn 0 1 0
vn 0 -1 0
vn 0 0 -1
vn 0 0 1
vn 1 0 0
vn -1 0 0
vn 0 1 0
vn 0 -1 0
vn 0 0 -1
vn 0 0 1
vn 1 0 0
vn -1 0 0
vn 0 1 0
vn 0 -1 0
vn 0 0 -1
vn 0 0 1
usemtl m_85c2d02e-6b0a-c38d-26c7-e7cb24b7dad4
f 32/1/1 30/2/1 1/3/1 2/4/1
f 4/5/2 3/6/2 34/7/2 36/8/2
f 1/9/3 30/10/3 34/11/3 3/12/3
f 32/13/4 2/14/4 4/15/4 36/16/4
f 2/17/5 1/18/5 3/19/5 4/20/5
f 36/21/6 34/22/6 30/23/6 32/24/6
f 8/25/7 6/26/7 5/27/7 7/28/7
f 11/29/8 9/30/8 10/31/8 12/32/8
f 5/33/9 6/34/9 10/35/9 9/36/9
f 8/37/10 7/38/10 11/39/10 12/40/10
f 7/41/11 5/42/11 9/43/11 11/44/11
f 12/45/12 10/46/12 6/47/12 8/48/12
usemtl m_2e08293e-e7cd-e589-a288-307ab4ee193c
f 16/49/13 14/50/13 13/51/13 15/52/13
f 19/53/14 17/54/14 18/55/14 20/56/14
f 13/57/15 14/58/15 18/59/15 17/60/15
f 16/61/16 15/62/16 19/63/16 20/64/16
f 15/65/17 13/66/17 17/67/17 19/68/17
f 20/69/18 18/70/18 14/71/18 16/72/18
f 24/73/19 22/74/19 21/75/19 23/76/19
f 27/77/20 25/78/20 26/79/20 28/80/20
f 21/81/21 22/82/21 26/83/21 25/84/21
f 24/85/22 23/86/22 27/87/22 28/88/22
f 23/89/23 21/90/23 25/91/23 27/92/23
f 28/93/24 26/94/24 22/95/24 24/96/24
usemtl m_85c2d02e-6b0a-c38d-26c7-e7cb24b7dad4
f 29/97/25 30/98/25 32/99/25 31/100/25
f 34/101/26 33/102/26 35/103/26 36/104/26
f 34/105/27 30/106/27 29/107/27 33/108/27
f 35/109/28 31/110/28 32/111/28 36/112/28
f 33/113/29 29/114/29 31/115/29 35/116/29
f 30/117/30 34/118/30 36/119/30 32/120/30
f 37/121/31 38/122/31 40/123/31 39/124/31
f 42/125/32 41/126/32 43/127/32 44/128/32
f 42/129/33 38/130/33 37/131/33 41/132/33
f 43/133/34 39/134/34 40/135/34 44/136/34
f 41/137/35 37/138/35 39/139/35 43/140/35
f 38/141/36 42/142/36 44/143/36 40/144/36
usemtl m_2e08293e-e7cd-e589-a288-307ab4ee193c
f 45/145/37 14/146/37 16/147/37 46/148/37
f 18/149/38 47/150/38 48/151/38 20/152/38
f 18/153/39 14/154/39 45/155/39 47/156/39
f 48/157/40 46/158/40 16/159/40 20/160/40
f 47/161/41 45/162/41 46/163/41 48/164/41
f 14/165/42 18/166/42 20/167/42 16/168/42
f 49/169/43 22/170/43 24/171/43 50/172/43
f 26/173/44 51/174/44 52/175/44 28/176/44
f 26/177/45 22/178/45 49/179/45 51/180/45
f 52/181/46 50/182/46 24/183/46 28/184/46
f 51/185/47 49/186/47 50/187/47 52/188/47
f 22/189/48 26/190/48 28/191/48 24/192/48