# Made in Blockbench 4.12.5
mtllib mtr_ris_wm.mtl

o cube
v 0.375 1 -0.4375
v 0.375 1 -0.5
v 0.375 -0.375 -0.4375
v 0.375 -0.375 -0.5
v -0.375 1 -0.5
v -0.375 1 -0.4375
v -0.375 -0.375 -0.5
v -0.375 -0.375 -0.4375
vt 0.125 1
vt 0.875 1
vt 0.875 0
vt 0.125 0
vt 0.9375 1
vt 1 1
vt 1 0
vt 0.9375 0
vt 0 1
vt 1 1
vt 1 0
vt 0 0
vt 0 1
vt 0.0625 1
vt 0.0625 0
vt 0 0
vt 0.125 1
vt 0.875 1
vt 0.875 0.9375
vt 0.125 0.9375
vt 0.125 0.0625
vt 0.875 0.0625
vt 0.875 0
vt 0.125 0
vn 0 0 -1
vn 1 0 0
vn 0 0 1
vn -1 0 0
vn 0 1 0
vn 0 -1 0
usemtl m_4aadc315-670a-0a02-b3e2-074c39aae2f2
f 7/3/1 5/2/1 2/1/1
f 4/4/1 7/3/1 2/1/1
f 4/7/2 2/6/2 1/5/2
f 3/8/2 4/7/2 1/5/2
f 3/11/3 1/10/3 6/9/3
f 8/12/3 3/11/3 6/9/3
f 8/15/4 6/14/4 5/13/4
f 7/16/4 8/15/4 5/13/4
f 1/19/5 2/18/5 5/17/5
f 6/20/5 1/19/5 5/17/5
f 4/23/6 3/22/6 8/21/6
f 7/24/6 4/23/6 8/21/6